<?xml version="1.0" standalone="no"?>
<!DOCTYPE svg PUBLIC "-//W3C//DTD SVG 20010904//EN"
 "http://www.w3.org/TR/2001/REC-SVG-20010904/DTD/svg10.dtd">
<svg version="1.0" xmlns="http://www.w3.org/2000/svg"
 width="5000.000000pt" height="5000.000000pt" viewBox="0 0 5000.000000 5000.000000"
 preserveAspectRatio="xMidYMid meet">

<g transform="translate(0.000000,5000.000000) scale(0.100000,-0.100000)"
fill="#000000" stroke="none">
<path d="M24755 37933 c-529 -44 -1024 -203 -1446 -466 -118 -73 -321 -223
-405 -299 -32 -29 -974 -892 -2094 -1918 -2457 -2251 -2340 -2144 -2350 -2148
-5 -2 -11 311 -13 695 -3 629 -5 704 -21 757 -74 247 -260 442 -501 524 l-80
27 -1430 0 -1430 0 -75 -23 c-244 -77 -425 -255 -509 -500 l-26 -77 -5 -2581
-5 -2581 -561 -514 c-308 -283 -1041 -954 -1628 -1492 -601 -552 -1102 -1019
-1147 -1070 -484 -552 -641 -1322 -414 -2025 243 -751 896 -1305 1685 -1428
158 -25 462 -25 619 0 208 32 442 106 625 198 202 101 346 207 611 451 l180
165 5 -4757 5 -4756 22 -125 c64 -364 181 -663 371 -951 405 -609 1048 -993
1772 -1059 92 -8 2340 -10 8560 -8 7892 4 8441 5 8530 21 551 99 1002 331
1355 698 352 366 561 791 647 1316 l23 138 5 4744 5 4744 145 -134 c80 -73
156 -145 170 -159 14 -14 41 -37 60 -52 19 -14 44 -34 55 -45 32 -31 244 -168
325 -211 187 -100 412 -175 640 -214 166 -29 471 -31 638 -5 226 36 426 99
626 198 208 104 353 207 525 374 185 180 307 346 421 577 376 760 254 1681
-307 2313 -44 50 -125 131 -179 180 -273 249 -353 323 -399 366 -27 25 -162
149 -300 274 -137 126 -272 250 -300 275 -27 26 -81 76 -120 111 -91 82 -159
145 -208 192 -22 20 -56 52 -76 69 -35 30 -174 158 -316 288 -38 36 -92 85
-120 110 -27 25 -74 68 -105 96 -30 28 -118 109 -195 179 -77 70 -147 135
-156 145 -9 10 -38 37 -65 61 -40 34 -209 188 -274 249 -9 8 -63 58 -120 110
-58 52 -127 115 -155 141 -27 25 -84 77 -125 115 -71 65 -214 196 -354 325
-155 142 -280 257 -371 339 -38 35 -84 77 -101 94 -16 17 -68 65 -114 106
-144 128 -290 262 -349 320 -20 19 -54 50 -76 69 -34 29 -172 154 -281 256
-32 30 -167 155 -273 251 -101 92 -315 288 -365 334 -27 25 -72 66 -100 91
-28 26 -513 469 -1077 986 -564 517 -1035 946 -1047 954 -12 9 -52 44 -89 80
-37 35 -90 84 -118 108 -27 24 -97 88 -155 141 -58 53 -132 121 -165 151 -32
30 -89 81 -125 115 -36 34 -94 88 -130 120 -36 33 -77 71 -91 84 -14 14 -63
59 -109 100 -47 41 -118 106 -160 145 -41 38 -95 88 -120 110 -25 23 -76 70
-115 106 -38 35 -92 85 -120 110 -27 26 -79 73 -115 106 -36 33 -96 88 -135
123 -38 35 -79 73 -91 84 -11 12 -60 57 -109 101 -50 44 -117 105 -150 136
-58 54 -128 118 -190 174 -65 59 -230 211 -252 233 -13 13 -45 42 -71 64 -26
22 -83 75 -128 117 -44 42 -120 112 -169 156 -48 44 -104 96 -125 115 -21 19
-73 67 -116 105 -43 39 -89 81 -104 94 -48 44 -215 197 -345 316 -71 66 -155
142 -185 171 -261 244 -463 421 -585 509 -466 340 -1018 545 -1600 595 -110 9
-395 11 -490 3z m286 -4600 c44 -40 6379 -5845 7461 -6838 l328 -300 0 -5718
0 -5717 -2567 2 -2568 3 -5 3085 c-5 2861 -7 3089 -22 3147 -111 399 -408 672
-803 737 -91 15 -272 17 -1930 14 l-1830 -3 -95 -26 c-184 -51 -319 -129 -451
-262 -158 -157 -246 -336 -279 -562 -6 -45 -10 -1137 -10 -3103 l0 -3032
-2567 2 -2568 3 -3 5712 -2 5712 292 269 c1126 1036 7553 6922 7559 6922 4 0
31 -21 60 -47z"/>
</g>
</svg>
