<?xml version="1.0" standalone="no"?>
<!DOCTYPE svg PUBLIC "-//W3C//DTD SVG 20010904//EN"
 "http://www.w3.org/TR/2001/REC-SVG-20010904/DTD/svg10.dtd">
<svg version="1.0" xmlns="http://www.w3.org/2000/svg"
 width="4000.000000pt" height="4000.000000pt" viewBox="0 0 4000.000000 4000.000000"
 preserveAspectRatio="xMidYMid meet">

<g transform="translate(0.000000,4000.000000) scale(0.100000,-0.100000)"
fill="#000000" stroke="none">
<path d="M19510 33746 c40 -103 96 -335 121 -501 30 -200 38 -650 14 -895 -91
-961 -468 -1938 -1170 -3035 -142 -222 -216 -353 -285 -507 -134 -296 -215
-590 -256 -923 -22 -187 -22 -531 1 -720 76 -638 325 -1254 700 -1728 42 -53
78 -97 80 -97 2 0 -7 30 -22 68 -64 167 -111 354 -145 572 -20 130 -22 183
-23 510 0 392 7 485 61 764 119 613 404 1107 785 1361 336 224 771 281 1141
149 519 -186 943 -697 1103 -1330 48 -194 59 -291 59 -544 0 -201 -3 -254 -23
-365 -93 -529 -327 -1059 -616 -1398 -36 -42 -65 -79 -65 -82 0 -4 37 19 83
51 297 207 576 503 776 825 470 756 658 1784 546 2978 -127 1344 -703 2620
-1716 3801 -319 373 -755 792 -1097 1057 l-80 62 28 -73z"/>
<path d="M18090 24024 c-380 -45 -606 -137 -777 -317 -221 -233 -329 -580
-373 -1202 -5 -77 -14 -228 -20 -335 -31 -558 -86 -786 -356 -1478 -281 -718
-326 -884 -327 -1202 0 -130 4 -185 20 -260 50 -235 192 -453 326 -505 48 -18
136 -18 300 1 l57 7 0 -369 c0 -537 -19 -1096 -92 -2694 -16 -351 -24 -7916
-9 -8076 39 -406 255 -695 662 -888 299 -142 666 -219 1274 -268 436 -35 2084
8 2555 68 443 55 761 177 971 371 174 162 278 381 308 656 8 67 11 1720 11
5499 0 3368 4 5512 10 5693 12 357 32 756 70 1420 91 1591 101 2284 44 3075
-16 228 -29 311 -63 401 -47 125 -148 239 -238 270 -57 20 -159 15 -224 -10
-303 -116 -447 -424 -411 -873 22 -266 60 -437 232 -1028 218 -750 286 -1067
312 -1467 28 -425 -52 -826 -210 -1055 -127 -184 -354 -282 -577 -248 -182 28
-334 109 -473 254 -242 252 -345 543 -345 971 1 328 33 525 208 1260 127 535
145 644 152 945 8 328 -19 514 -97 675 -159 328 -578 529 -1280 615 -91 11
-356 36 -590 56 -345 30 -481 37 -720 39 -162 2 -311 1 -330 -1z"/>
</g>
</svg>
