<?xml version="1.0" standalone="no"?>
<!DOCTYPE svg PUBLIC "-//W3C//DTD SVG 20010904//EN"
 "http://www.w3.org/TR/2001/REC-SVG-20010904/DTD/svg10.dtd">
<svg version="1.0" xmlns="http://www.w3.org/2000/svg"
 width="5000.000000pt" height="5000.000000pt" viewBox="0 0 5000.000000 5000.000000"
 preserveAspectRatio="xMidYMid meet">

<g transform="translate(0.000000,5000.000000) scale(0.100000,-0.100000)"
fill="#000000" stroke="none">
<path d="M24575 39978 c-236 -3 -538 -13 -670 -22 -224 -15 -272 -19 -400 -31
-162 -15 -553 -58 -630 -70 -16 -3 -91 -14 -165 -25 -2400 -359 -4669 -1347
-6556 -2856 -1216 -972 -2256 -2138 -3064 -3434 -57 -91 -117 -187 -135 -215
-18 -27 -77 -129 -133 -225 -601 -1049 -1058 -2160 -1366 -3325 -79 -297 -194
-807 -230 -1020 -62 -361 -101 -614 -121 -775 -29 -241 -36 -304 -40 -360 -3
-36 -10 -110 -16 -165 -5 -55 -12 -131 -14 -170 -2 -38 -7 -108 -11 -155 -3
-47 -8 -105 -9 -130 -2 -25 -6 -277 -11 -560 -6 -460 3 -944 21 -1140 2 -25 9
-101 15 -170 17 -204 20 -238 36 -385 21 -194 20 -191 49 -400 8 -60 17 -126
19 -145 55 -412 209 -1145 327 -1555 115 -402 367 -1153 433 -1290 105 -220
312 -380 559 -431 96 -19 256 -15 352 10 214 57 414 224 510 427 56 120 70
186 70 339 l0 135 -52 135 c-181 475 -362 1082 -483 1625 -36 162 -95 457
-105 530 -4 28 -10 59 -12 70 -8 38 -51 310 -58 368 -3 32 -8 64 -10 70 -4 12
-27 213 -40 347 -3 36 -8 72 -10 80 -2 8 -7 58 -10 110 -4 52 -8 109 -10 125
-19 153 -35 626 -34 980 2 524 19 829 75 1350 8 77 34 271 54 405 6 41 13 88
16 104 8 64 46 279 75 426 268 1380 783 2722 1509 3931 474 790 1004 1480
1687 2195 133 139 290 290 662 639 118 110 434 372 624 519 499 382 1015 722
1536 1012 825 459 1685 816 2606 1080 197 57 651 171 790 198 44 9 91 19 105
22 203 43 670 122 850 144 52 6 109 13 125 15 153 20 205 26 305 35 63 5 147
12 185 14 39 3 97 7 130 10 102 9 384 24 515 28 232 6 774 -2 945 -13 94 -6
177 -11 185 -11 94 1 828 -78 1000 -108 30 -5 114 -19 185 -30 737 -117 1566
-340 2330 -628 949 -358 1898 -861 2715 -1440 98 -70 860 -636 899 -669 12
-10 -21 -17 -146 -34 -301 -39 -601 -79 -663 -89 -36 -5 -153 -21 -260 -35
-107 -14 -229 -32 -270 -41 -271 -58 -503 -285 -581 -569 -28 -102 -31 -278
-6 -374 39 -145 97 -255 191 -357 154 -169 358 -258 585 -255 41 1 178 17 305
35 127 19 249 37 271 40 22 3 177 26 345 51 168 25 379 57 470 70 91 13 244
35 340 50 96 14 191 28 210 30 19 3 154 22 300 44 146 22 283 42 305 45 22 3
67 9 100 15 85 14 163 25 310 45 149 21 296 50 351 71 240 90 413 282 483 536
37 134 28 274 -48 769 -6 36 -13 83 -16 105 -3 22 -12 81 -20 131 -13 79 -18
114 -29 209 -2 11 -6 34 -9 50 -3 17 -9 53 -12 80 -3 28 -8 61 -10 75 -5 27
-51 330 -90 605 -27 186 -28 187 -49 325 -8 52 -17 118 -20 145 -3 28 -8 61
-11 75 -7 34 -43 275 -50 330 -4 37 -74 509 -89 600 -2 14 -14 54 -26 90 -119
353 -462 572 -831 531 -121 -14 -183 -32 -294 -89 -72 -37 -108 -64 -180 -137
-78 -77 -98 -105 -146 -200 -95 -186 -109 -312 -69 -580 12 -77 23 -153 25
-170 3 -16 13 -91 24 -165 11 -74 22 -157 25 -185 3 -27 14 -115 25 -195 26
-187 31 -232 25 -242 -5 -8 -3 -10 -477 331 -541 389 -935 648 -1352 888
-1248 718 -2531 1213 -3934 1518 -90 20 -198 42 -240 50 -42 7 -166 30 -276
49 -170 31 -264 46 -438 71 -73 11 -112 16 -232 30 -71 9 -143 18 -160 20
-226 29 -696 62 -1170 83 -88 4 -353 4 -590 0z"/>
<path d="M18700 32533 c-441 -30 -812 -128 -1185 -313 -495 -246 -880 -589
-1195 -1066 -267 -407 -429 -868 -476 -1359 -19 -201 -14 -525 10 -705 80
-581 317 -1114 691 -1553 41 -48 75 -93 75 -100 0 -6 -44 -37 -97 -67 -467
-267 -947 -683 -1311 -1139 -99 -123 -309 -432 -385 -567 -206 -363 -366 -762
-466 -1162 -31 -122 -85 -398 -97 -492 -3 -30 -8 -64 -10 -75 -15 -70 -15
-218 0 -301 63 -362 387 -634 756 -634 388 0 727 299 766 675 2 28 7 66 10 85
3 19 8 51 10 70 9 83 59 296 100 428 374 1208 1405 2055 2657 2182 77 8 213
11 385 7 298 -5 453 -26 709 -93 590 -155 1143 -492 1523 -930 52 -60 129
-143 171 -184 l77 -75 32 -115 c163 -579 450 -1083 857 -1501 57 -58 103 -110
103 -115 0 -5 -53 -37 -118 -71 -153 -82 -370 -218 -536 -336 -1281 -915
-2132 -2337 -2321 -3877 -20 -162 -19 -225 4 -336 79 -384 451 -651 838 -604
103 13 230 54 311 101 74 44 227 197 271 271 51 88 88 209 106 348 117 929
515 1747 1166 2399 609 608 1358 992 2169 1110 367 54 665 54 1040 0 1581
-226 2915 -1497 3269 -3116 17 -76 42 -219 56 -318 32 -219 39 -250 71 -327
41 -98 99 -181 182 -259 93 -88 163 -132 274 -170 249 -85 496 -48 714 107
158 111 269 294 305 499 38 217 -75 836 -246 1351 -261 788 -668 1472 -1241
2086 -396 424 -909 823 -1389 1079 -52 28 -98 55 -101 60 -3 6 45 63 108 127
401 414 697 937 852 1505 l27 98 82 82 c46 45 121 127 168 181 148 174 379
373 604 522 407 268 859 431 1355 489 164 20 536 20 700 0 868 -101 1617 -533
2149 -1239 200 -266 330 -510 441 -831 76 -219 110 -372 161 -725 44 -301 293
-561 601 -624 258 -53 520 27 708 216 183 185 246 402 206 708 -139 1054 -585
1963 -1325 2700 -283 281 -555 494 -883 692 -93 55 -168 102 -168 105 0 2 34
43 75 91 87 101 264 345 322 447 136 236 241 492 308 750 34 133 73 347 81
445 2 30 7 78 10 105 8 78 5 378 -6 500 -21 228 -79 502 -148 705 -224 652
-676 1218 -1272 1595 -140 88 -415 222 -572 279 -490 176 -995 225 -1513 145
-853 -131 -1627 -640 -2095 -1377 -648 -1021 -625 -2337 57 -3337 79 -115 203
-273 247 -314 14 -14 26 -28 26 -32 0 -4 -44 -34 -97 -65 -54 -31 -149 -90
-211 -131 -62 -40 -116 -73 -120 -73 -4 0 -28 51 -52 113 -91 231 -236 495
-390 710 -214 301 -457 550 -750 771 -512 385 -1083 610 -1745 687 -131 16
-582 15 -715 0 -753 -88 -1402 -375 -1959 -866 -386 -340 -725 -816 -910
-1278 -16 -40 -36 -88 -45 -108 l-15 -37 -98 65 c-54 36 -151 96 -216 135
-107 63 -117 72 -105 88 7 9 47 58 89 107 212 250 393 564 513 886 72 194 123
395 162 642 21 136 30 527 15 680 -59 608 -278 1155 -652 1626 -107 135 -346
374 -479 479 -276 219 -601 397 -925 507 -352 119 -792 180 -1135 156z m377
-1559 c484 -71 902 -374 1121 -811 175 -348 206 -771 83 -1135 -78 -230 -189
-407 -365 -583 -126 -125 -245 -214 -374 -279 -550 -276 -1195 -198 -1657 201
-239 207 -400 473 -482 798 -30 122 -43 387 -24 526 66 498 386 935 844 1154
264 126 566 172 854 129z m12005 -13 c652 -140 1129 -682 1188 -1351 53 -605
-302 -1211 -861 -1469 -586 -270 -1261 -141 -1710 327 -201 209 -327 453 -390
752 -30 146 -31 400 -1 547 61 300 190 549 397 762 55 57 134 129 177 161 192
145 438 249 678 286 125 19 398 11 522 -15z m-6001 -3057 c571 -79 1063 -395
1383 -887 110 -168 217 -424 261 -627 193 -878 -246 -1778 -1058 -2171 -481
-232 -1029 -258 -1526 -72 -600 224 -1054 731 -1211 1353 -223 882 202 1804
1020 2215 190 95 385 157 600 189 131 19 393 20 531 0z"/>
<path d="M37185 30610 c-150 -39 -264 -109 -377 -229 -87 -93 -139 -178 -175
-286 -22 -68 -27 -103 -30 -225 l-5 -145 72 -195 c328 -894 547 -1792 664
-2720 14 -107 28 -231 31 -275 4 -44 8 -91 11 -105 8 -52 34 -433 44 -647 13
-277 13 -699 0 -948 -18 -357 -20 -379 -45 -670 -16 -183 -51 -466 -90 -725
-29 -190 -96 -550 -129 -695 -8 -33 -29 -123 -46 -200 -393 -1731 -1230 -3447
-2379 -4875 -68 -85 -134 -166 -147 -180 -12 -14 -52 -61 -89 -105 -38 -44
-73 -84 -79 -90 -6 -5 -22 -23 -35 -40 -28 -36 -163 -183 -374 -406 -224 -238
-664 -648 -883 -824 -27 -22 -53 -45 -59 -51 -19 -22 -319 -259 -480 -380
-1446 -1086 -3105 -1838 -4875 -2208 -197 -41 -515 -99 -600 -110 -19 -2 -64
-9 -100 -15 -36 -6 -83 -13 -105 -15 -22 -2 -71 -9 -110 -14 -38 -6 -97 -14
-130 -17 -33 -4 -73 -8 -90 -10 -71 -10 -473 -46 -620 -55 -263 -17 -918 -23
-1175 -11 -347 16 -409 20 -585 36 -88 9 -187 18 -220 21 -33 3 -70 7 -83 10
-13 2 -51 7 -85 10 -53 5 -392 52 -497 69 -19 3 -75 13 -125 21 -1151 191
-2367 592 -3450 1139 -657 332 -1223 685 -1845 1150 -486 363 -582 437 -574
445 5 5 74 18 154 29 154 22 614 88 666 96 16 2 140 20 275 39 289 42 338 54
438 106 484 253 579 907 185 1281 -145 137 -304 205 -504 215 -82 5 -149 -3
-495 -55 -220 -34 -488 -75 -595 -91 -107 -16 -269 -41 -360 -54 -192 -30
-820 -125 -1060 -161 -91 -14 -255 -39 -365 -55 -110 -17 -253 -39 -318 -50
-196 -33 -332 -102 -463 -235 -174 -176 -247 -402 -214 -662 16 -135 17 -137
28 -198 5 -27 10 -57 10 -65 0 -8 9 -69 21 -135 11 -66 31 -194 45 -285 14
-91 50 -325 81 -520 56 -358 82 -530 89 -585 2 -16 6 -41 9 -55 4 -14 8 -43
11 -65 3 -22 10 -65 15 -95 6 -30 12 -73 15 -95 3 -22 21 -141 41 -265 19
-124 47 -299 61 -390 72 -475 81 -516 139 -630 84 -167 224 -295 401 -367 106
-43 139 -48 314 -48 164 1 212 11 345 75 192 93 345 280 400 490 28 109 31
261 6 418 -36 237 -90 595 -96 642 -3 25 -15 107 -27 182 -12 76 -19 141 -15
144 3 4 64 -36 134 -88 1005 -743 1610 -1123 2448 -1538 1291 -639 2547 -1036
3992 -1260 294 -46 556 -76 1003 -115 72 -6 342 -23 505 -32 210 -11 1063 -7
1275 6 107 6 229 14 270 16 129 8 518 44 685 65 88 11 180 22 205 24 25 3 119
17 210 31 233 35 288 44 345 56 28 5 133 25 235 45 2045 393 4014 1268 5695
2533 1227 922 2263 2024 3140 3336 504 754 947 1590 1291 2437 397 976 689
2025 843 3028 11 74 23 146 26 160 3 14 7 43 10 65 2 22 15 130 29 240 120
955 138 1999 51 2950 -21 219 -63 580 -85 725 -6 36 -12 81 -15 100 -7 56 -41
265 -64 390 -114 635 -227 1072 -461 1783 -188 573 -234 681 -338 807 -94 114
-272 222 -419 254 -100 22 -287 20 -378 -4z"/>
</g>
</svg>
